<svg xmlns="http://www.w3.org/2000/svg" viewBox="0 0 800 1000" width="800" height="1000">
  <defs>
    <radialGradient id="dnaBg" cx="50%" cy="50%" r="70%">
      <stop offset="0%" stop-color="#1a0a3d"/>
      <stop offset="100%" stop-color="#080412"/>
    </radialGradient>
    <filter id="dnaGlow">
      <feGaussianBlur stdDeviation="3" result="blur"/>
      <feMerge><feMergeNode in="blur"/><feMergeNode in="SourceGraphic"/></feMerge>
    </filter>
  </defs>

  <rect width="800" height="1000" fill="url(#dnaBg)"/>

  <!-- Left strand -->
  <path d="M 280 50 C 340 150 340 250 280 350 C 220 450 220 550 280 650 C 340 750 340 850 280 950"
        fill="none" stroke="#9b59b6" stroke-width="3" stroke-opacity="0.85" filter="url(#dnaGlow)"/>

  <!-- Right strand -->
  <path d="M 520 50 C 460 150 460 250 520 350 C 580 450 580 550 520 650 C 460 750 460 850 520 950"
        fill="none" stroke="#3498db" stroke-width="3" stroke-opacity="0.85" filter="url(#dnaGlow)"/>

  <!-- Base pairs -->
  <g filter="url(#dnaGlow)">
    <line x1="293" y1="92" x2="507" y2="92" stroke="#e74c3c" stroke-width="2.5" stroke-opacity="0.8"/>
    <line x1="310" y1="140" x2="490" y2="140" stroke="#2ecc71" stroke-width="2.5" stroke-opacity="0.8"/>
    <line x1="315" y1="190" x2="485" y2="190" stroke="#e74c3c" stroke-width="2.5" stroke-opacity="0.75"/>
    <line x1="305" y1="242" x2="495" y2="242" stroke="#f39c12" stroke-width="2.5" stroke-opacity="0.8"/>
    <line x1="284" y1="294" x2="516" y2="294" stroke="#2ecc71" stroke-width="2.5" stroke-opacity="0.8"/>
    <line x1="258" y1="344" x2="542" y2="344" stroke="#e74c3c" stroke-width="2.5" stroke-opacity="0.8"/>
    <line x1="240" y1="394" x2="560" y2="394" stroke="#f39c12" stroke-width="2.5" stroke-opacity="0.8"/>
    <line x1="238" y1="444" x2="562" y2="444" stroke="#2ecc71" stroke-width="2.5" stroke-opacity="0.8"/>
    <line x1="252" y1="494" x2="548" y2="494" stroke="#e74c3c" stroke-width="2.5" stroke-opacity="0.8"/>
    <line x1="278" y1="544" x2="522" y2="544" stroke="#f39c12" stroke-width="2.5" stroke-opacity="0.8"/>
    <line x1="309" y1="594" x2="491" y2="594" stroke="#2ecc71" stroke-width="2.5" stroke-opacity="0.8"/>
    <line x1="336" y1="642" x2="464" y2="642" stroke="#e74c3c" stroke-width="2.5" stroke-opacity="0.8"/>
    <line x1="343" y1="690" x2="457" y2="690" stroke="#f39c12" stroke-width="2.5" stroke-opacity="0.75"/>
    <line x1="331" y1="740" x2="469" y2="740" stroke="#2ecc71" stroke-width="2.5" stroke-opacity="0.8"/>
    <line x1="307" y1="790" x2="493" y2="790" stroke="#e74c3c" stroke-width="2.5" stroke-opacity="0.8"/>
    <line x1="278" y1="840" x2="522" y2="840" stroke="#f39c12" stroke-width="2.5" stroke-opacity="0.8"/>
    <line x1="255" y1="890" x2="545" y2="890" stroke="#2ecc71" stroke-width="2.5" stroke-opacity="0.8"/>
    <line x1="262" y1="938" x2="538" y2="938" stroke="#e74c3c" stroke-width="2.5" stroke-opacity="0.8"/>
  </g>

  <!-- Strand nodes -->
  <g>
    <circle cx="280" cy="50" r="5" fill="#9b59b6" opacity="0.9"/>
    <circle cx="520" cy="50" r="5" fill="#3498db" opacity="0.9"/>
    <circle cx="280" cy="350" r="6" fill="#9b59b6" opacity="0.95"/>
    <circle cx="520" cy="350" r="6" fill="#3498db" opacity="0.95"/>
    <circle cx="280" cy="650" r="6" fill="#9b59b6" opacity="0.95"/>
    <circle cx="520" cy="650" r="6" fill="#3498db" opacity="0.95"/>
    <circle cx="280" cy="950" r="5" fill="#9b59b6" opacity="0.9"/>
    <circle cx="520" cy="950" r="5" fill="#3498db" opacity="0.9"/>
  </g>

  <!-- APOE label -->
  <text x="400" y="510" text-anchor="middle" font-family="Georgia, serif" font-size="13" fill="#e8d5f0" opacity="0.55" letter-spacing="4">APOE · ε4</text>
</svg>
